# xmcd CD database file
#
# Track frame offsets:
#	150
#	20306
#	34900
#	51168
#	60652
#	85624
#	100508
#	135180
#	173858
#	189963
#	206252
#	223453
#	235886
#	253417
#	264730
#	278473
#	291127
#	300043
#
# Disc length: 4228 seconds
#
# Revision: 0
# Processed by: cddbd v1.5.1PL0 Copyright (c) Steve Scherf et al.
# Submitted via: CdAid (MTCDDB.DLL V2003.12.21)
#
DISCID=f1108212
DTITLE=Various Artist - The Best of British Blues vol 2
DYEAR=2003
DGENRE=Blues
TTITLE0=The Yardbirds w/Jeff Beck * I'm a Man
TTITLE1=The Animals * Let It Rock (Live)
TTITLE2=Savoy Blues Band Brown * I Can't Quit You Baby
TTITLE3=Eric Clapton, Jimmy Page * Tribute to Elmore
TTITLE4=Van Morrison * Who Drove the Red Sports Car?
TTITLE5=Brian Auger, Jimmy Page, Sonny Boy Williamson * It's a Bloody Life (Li
TTITLE5=ve)
TTITLE6=Peter Green * A Fool No More
TTITLE7=Humble Pie * For Your Love
TTITLE8=The Animals w/Sonny Boy Williamson * My Babe (live)
TTITLE9=Dave Kelly * Married Woman Blues
TTITLE10=Albert Lee, Tony Colton * The Next Milestone
TTITLE11=Rhythm and Blues All Stars w/Cyril Davies * Someday Baby
TTITLE12=The Small Faces * Every Little Bit Hurts
TTITLE13=Barbara Lynn *That's What a Friend Will Do
TTITLE14=The Yardbirds w/Jeff beck - Jeff's Blues
TTITLE15=Jo-Ann Kelly * I Feel So Good
TTITLE16=Tye Yardbirds w/Eric Clapton
TTITLE17=Savoy Blues Band Brown * I Ain't Got You
EXTD=The Best of British Blues vol 2\nFuel 2000 Records * Varese  ID3G:   0 YE
EXTD=AR: 2003
EXTT0=
EXTT1=
EXTT2=
EXTT3=
EXTT4=
EXTT5=
EXTT6=
EXTT7=
EXTT8=
EXTT9=
EXTT10=
EXTT11=
EXTT12=
EXTT13=
EXTT14=
EXTT15=
EXTT16=
EXTT17=
PLAYORDER=
